<?xml version="1.0" encoding="UTF-8" standalone="no"?>
<!-- Created with Inkscape (http://www.inkscape.org/) -->

<svg
   width="133.75952mm"
   height="133.75952mm"
   viewBox="0 0 133.75952 133.75952"
   version="1.1"
   id="svg32265"
   xmlns:inkscape="http://www.inkscape.org/namespaces/inkscape"
   xmlns:sodipodi="http://sodipodi.sourceforge.net/DTD/sodipodi-0.dtd"
   xmlns="http://www.w3.org/2000/svg"
   xmlns:svg="http://www.w3.org/2000/svg">
  <sodipodi:namedview
     id="namedview32267"
     pagecolor="#505050"
     bordercolor="#eeeeee"
     borderopacity="1"
     inkscape:showpageshadow="0"
     inkscape:pageopacity="0"
     inkscape:pagecheckerboard="0"
     inkscape:deskcolor="#505050"
     inkscape:document-units="mm"
     showgrid="false" />
  <defs
     id="defs32262" />
  <g
     inkscape:label="Layer 1"
     inkscape:groupmode="layer"
     id="layer1"
     transform="translate(-32.308358,-90.092153)">
    <g
       id="g29828"
       transform="matrix(0.26458333,0,0,0.26458333,-199.0094,-212.05426)"
       inkscape:export-filename="albay-present"
       inkscape:export-xdpi="170"
       inkscape:export-ydpi="170">
      <circle
         style="fill:#ffffff;fill-opacity:1;stroke:#000000;stroke-width:3.37529;stroke-miterlimit:4;stroke-dasharray:none;stroke-opacity:1"
         id="circle27955"
         cx="1127.0458"
         cy="1394.7446"
         r="251.08627" />
      <circle
         r="196.46918"
         cy="1394.7446"
         cx="1127.0458"
         id="circle27957"
         style="fill:#ffffff;fill-opacity:1;stroke:#000000;stroke-width:3.41855;stroke-miterlimit:4;stroke-dasharray:none;stroke-opacity:1" />
      <g
         id="g27963"
         transform="matrix(3.2954413,0,0,3.2954413,-865.52915,535.49905)">
        <path
           transform="matrix(0.40700307,0.00566773,-0.00566773,0.40700307,1021.0362,246.32905)"
           inkscape:transform-center-y="-0.42743194"
           inkscape:transform-center-x="0.28389356"
           d="m -1178.9826,87.625078 -6.6568,-3.363438 -5.2916,5.255871 1.1418,-7.370312 -6.6338,-3.408449 7.3624,-1.191665 1.1916,-7.362409 3.4085,6.633823 7.3703,-1.14177 -5.2559,5.291593 z"
           inkscape:randomized="0"
           inkscape:rounded="0"
           inkscape:flatsided="false"
           sodipodi:arg2="1.4137167"
           sodipodi:arg1="0.78539816"
           sodipodi:r2="3.9618678"
           sodipodi:r1="10.290566"
           sodipodi:cy="80.348549"
           sodipodi:cx="-1186.2592"
           sodipodi:sides="5"
           id="path27959"
           style="fill:#000000;fill-opacity:1;stroke:none;stroke-width:1.0262;stroke-linejoin:round;stroke-miterlimit:4;stroke-dasharray:none;stroke-opacity:1"
           sodipodi:type="star" />
        <path
           sodipodi:type="star"
           style="fill:#000000;fill-opacity:1;stroke:none;stroke-width:1.0262;stroke-linejoin:round;stroke-miterlimit:4;stroke-dasharray:none;stroke-opacity:1"
           id="path27961"
           sodipodi:sides="5"
           sodipodi:cx="-1186.2592"
           sodipodi:cy="80.348549"
           sodipodi:r1="10.290566"
           sodipodi:r2="3.9618678"
           sodipodi:arg1="0.78539816"
           sodipodi:arg2="1.4137167"
           inkscape:flatsided="false"
           inkscape:rounded="0"
           inkscape:randomized="0"
           d="m -1178.9826,87.625078 -6.6568,-3.363438 -5.2916,5.255871 1.1418,-7.370312 -6.6338,-3.408449 7.3624,-1.191665 1.1916,-7.362409 3.4085,6.633823 7.3703,-1.14177 -5.2559,5.291593 z"
           inkscape:transform-center-x="-0.28389143"
           inkscape:transform-center-y="-0.42743194"
           transform="matrix(-0.40700307,0.00566773,0.00566773,0.40700307,188.55889,246.32905)" />
      </g>
      <g
         aria-label="PROVINCE OF ALBAY"
         transform="translate(545.15984,-1.0749004e-5)"
         id="text27973"
         style="font-weight:bold;font-size:47.4104px;font-family:Arial;-inkscape-font-specification:'Arial Bold';letter-spacing:3.24215px;white-space:pre;display:inline;fill-rule:evenodd;stroke-width:0.408457;stroke-linecap:square">
        <path
           d="m 381.63176,1343.0311 -32.30301,-10.4047 3.37125,-10.4665 q 1.91628,-5.9494 2.98303,-7.6001 1.62141,-2.5422 4.67055,-3.6273 3.0271,-1.0923 6.88319,0.1498 2.9747,0.9581 4.65413,2.6908 1.67943,1.7326 2.30787,3.7834 0.61351,2.0217 0.43451,3.8611 -0.28959,2.4847 -1.71616,6.9137 l -1.36979,4.2527 12.18524,3.9248 z m -24.73756,-15.1668 9.16647,2.9525 1.14977,-3.5697 q 1.24204,-3.8561 1.15398,-5.3193 -0.0881,-1.4633 -0.93355,-2.5383 -0.83839,-1.0969 -2.27065,-1.5582 -1.76279,-0.5678 -3.24217,0.099 -1.47939,0.6666 -2.27685,2.1609 -0.5965,1.0968 -1.73208,4.6224 z"
           id="path28006" />
        <path
           d="m 393.07041,1310.0363 -29.9914,-15.8827 6.74958,-12.7453 q 2.54599,-4.8076 4.51271,-6.5428 1.9571,-1.7665 4.71673,-1.9815 2.75964,-0.2151 5.41917,1.1933 3.37557,1.7876 4.53413,4.9421 1.13811,3.1437 -0.38003,7.3954 2.18571,-1.3573 4.22811,-1.8998 2.05322,-0.5629 6.69994,-0.8789 l 7.79027,-0.5634 -3.83524,7.2421 -8.84457,0.922 q -4.73339,0.4796 -6.08857,0.8621 -1.37563,0.3717 -2.21216,1.1599 -0.85698,0.7773 -1.96205,2.864 l -0.65004,1.2275 12.52028,6.6304 z m -14.10059,-15.2211 2.37265,-4.4803 q 2.30764,-4.3576 2.5136,-5.6369 0.20596,-1.2793 -0.36918,-2.3697 -0.57513,-1.0904 -1.92535,-1.8055 -1.51389,-0.8017 -2.86786,-0.4709 -1.3636,0.2995 -2.38914,1.6425 -0.49231,0.6823 -2.44243,4.3647 l -2.50266,4.7258 z"
           id="path28008" />
        <path
           d="m 397.42043,1267.8906 q -4.04444,-3.2453 -5.81819,-6.6572 -1.29782,-2.5255 -1.6588,-5.3677 -0.34649,-2.8602 0.36938,-5.3429 0.93763,-3.3139 3.53098,-6.5459 4.69411,-5.85 11.13394,-6.4407 6.45432,-0.6087 12.91821,4.578 6.40972,5.1432 7.24271,11.54 0.81492,6.3823 -3.86469,12.2143 -4.73757,5.9041 -11.12681,6.5057 -6.40729,0.5872 -12.72673,-4.4836 z m 4.23828,-5.6518 q 4.49583,3.6075 8.49111,3.4 3.97723,-0.2219 6.5416,-3.4177 2.56438,-3.1959 1.90846,-7.0761 -0.65948,-3.9128 -5.26364,-7.6072 -4.55,-3.651 -8.39705,-3.4434 -3.83257,0.1896 -6.48387,3.4938 -2.6513,3.3042 -1.99895,7.1519 0.63429,3.8332 5.20234,7.4987 z"
           id="path28010" />
        <path
           d="m 443.93045,1241.0775 -31.37106,-17.7411 5.62167,-4.8597 22.92349,13.3849 -10.139,-24.4366 5.49908,-4.7537 12.99993,33.6222 z"
           id="path28012" />
        <path
           d="m 464.33457,1224.9876 -18.85904,-28.2149 5.69687,-3.8078 18.85903,28.2148 z"
           id="path28014" />
        <path
           d="m 478.23631,1215.6782 -15.0493,-30.4181 5.97573,-2.9565 22.4994,14.154 -10.04998,-20.3133 5.70599,-2.8231 15.0493,30.4181 -6.16246,3.0489 -22.07656,-13.7692 9.81387,19.8361 z"
           id="path28016" />
        <path
           d="m 529.64372,1181.9398 6.96703,0.2005 q 0.0571,5.7619 -2.62681,9.3455 -2.66798,3.555 -7.92113,5.0557 -6.49965,1.8569 -11.94981,-1.3772 -5.45652,-3.2563 -7.65676,-10.9579 -2.32742,-8.1469 0.59501,-13.8451 2.91608,-5.7204 9.77188,-7.679 5.98769,-1.7106 10.73831,0.7603 2.82366,1.4564 5.05581,5.0561 l -6.07678,3.4213 q -1.30367,-2.3722 -3.57087,-3.3135 -2.24494,-0.9476 -4.87152,-0.1973 -3.62823,1.0366 -5.15464,4.2895 -1.50416,3.2466 0.16192,9.0784 1.76782,6.1881 4.7441,8.1787 2.97628,1.9907 6.53773,0.9732 2.62657,-0.7503 4.04166,-2.9603 1.4151,-2.2099 1.21487,-6.0289 z"
           id="path28018" />
        <path
           d="m 548.51204,1190.5727 -3.46289,-33.7602 25.03229,-2.5676 0.58581,5.7111 -18.21577,1.8685 0.76769,7.4843 16.94919,-1.7385 0.58344,5.6881 -16.94918,1.7385 0.94249,9.1885 18.86057,-1.9346 0.58345,5.6881 z"
           id="path28020" />
        <path
           d="m 601.03365,1171.7262 q 0.82455,-5.1195 2.91536,-8.3469 1.55503,-2.3757 3.84818,-4.0932 2.316,-1.7139 4.82836,-2.3175 3.34464,-0.8213 7.4357,-0.1624 7.40505,1.1927 11.09904,6.5007 3.71685,5.3117 2.39904,13.4938 -1.30677,8.1135 -6.45769,11.997 -5.14724,3.8605 -12.52942,2.6716 -7.47361,-1.2038 -11.15212,-6.4624 -3.67482,-5.2814 -2.38645,-13.2807 z m 7.00761,0.8942 q -0.91658,5.6909 1.2369,9.0625 2.15716,3.3488 6.2025,4.0003 4.04535,0.6516 7.09547,-1.8351 3.07665,-2.5058 4.01531,-8.3338 0.92763,-5.7595 -1.15284,-9.0021 -2.05761,-3.239 -6.24009,-3.9126 -4.18247,-0.6736 -7.20605,1.7938 -3.0199,2.4447 -3.9512,8.227 z"
           id="path28022" />
        <path
           d="m 639.18376,1196.0925 11.08976,-32.0743 21.98817,7.6024 -1.87603,5.426 -15.51205,-5.3634 -2.62493,7.592 13.38981,4.6295 -1.87603,5.426 -13.38981,-4.6296 -4.71277,13.6305 z"
           id="path28024" />
        <path
           d="m 708.18537,1230.4813 -6.26102,-4.0453 1.69463,-8.083 -11.39428,-7.3619 -6.53622,4.9548 -6.10547,-3.9448 29.51997,-21.3317 6.08602,3.9322 z m -3.31053,-18.1245 2.90655,-13.1153 -10.68421,8.0901 z"
           id="path28026" />
        <path
           d="m 713.49897,1235.249 22.7769,-24.7826 5.04515,4.6368 -18.90764,20.5726 12.54469,11.5295 -3.86925,4.2099 z"
           id="path28028" />
        <path
           d="m 763.50378,1236.6409 8.30739,10.7244 q 2.4667,3.1844 3.39718,4.9527 0.96296,1.7724 1.07093,3.6507 0.12214,1.8966 -0.64911,3.8117 -0.75295,1.901 -2.49156,3.2477 -1.88502,1.4602 -4.2528,1.6545 -2.35361,0.2126 -4.48732,-0.9164 1.1859,3.0052 0.48629,5.6555 -0.69961,2.6503 -3.02385,4.4507 -1.83012,1.4176 -4.23503,1.9042 -2.37242,0.4908 -4.56388,-0.1836 -2.15898,-0.6702 -4.06972,-2.6454 -1.19546,-1.2409 -5.244,-6.3918 l -7.07404,-9.1323 z m -0.26926,8.8762 -6.2041,4.8058 2.75023,3.5504 q 2.45252,3.1661 3.13944,3.8639 1.24212,1.2633 2.63866,1.4406 1.42901,0.1815 2.7284,-0.825 1.24448,-0.964 1.47442,-2.2549 0.26242,-1.2867 -0.62192,-2.7686 -0.53226,-0.8761 -3.49514,-4.701 z m -10.66959,8.2648 -7.17406,5.5572 3.88435,5.0145 q 2.26823,2.9282 3.04253,3.5876 1.15526,1.0377 2.57834,1.136 1.45557,0.1023 2.88306,-1.0035 1.20788,-0.9356 1.59609,-2.1734 0.3882,-1.2377 -0.0922,-2.6518 -0.46627,-1.3958 -3.32991,-5.0926 z"
           id="path28030" />
        <path
           d="m 773.15639,1314.6923 -3.50174,-6.5805 5.41326,-6.2372 -6.37273,-11.9756 -8.12114,1.1486 -3.41474,-6.417 36.16912,-4.2736 3.40387,6.3965 z m 5.92615,-17.4452 8.92056,-10.0441 -13.27055,1.8696 z"
           id="path28032" />
        <path
           d="m 776.52295,1325.7367 13.53594,-4.5598 14.65711,-18.0551 2.56439,7.6126 -10.17461,11.855 15.2221,3.1289 2.52005,7.4809 -22.65281,-5.5357 -13.49207,4.545 z"
           id="path28034" />
      </g>
      <g
         aria-label="OFFICIAL SEAL"
         transform="translate(545.15984,-1.0749004e-5)"
         id="text27979"
         style="font-weight:bold;font-size:47.4104px;font-family:Arial;-inkscape-font-specification:'Arial Bold';letter-spacing:6.99999px;white-space:pre;display:inline;fill-rule:evenodd;stroke-width:0.408457;stroke-linecap:square">
        <path
           d="m 404.85527,1534.4313 q 3.83013,-3.4957 7.47472,-4.7221 2.69535,-0.8929 5.55922,-0.8113 2.87949,0.099 5.22212,1.1888 3.1297,1.4374 5.92311,4.4981 5.05623,5.54 4.64687,11.9939 -0.39376,6.471 -6.51512,12.0578 -6.07007,5.54 -12.51881,5.3767 -6.43165,-0.1789 -11.47227,-5.7018 -5.10305,-5.5913 -4.71228,-11.9969 0.40787,-6.4212 6.39244,-11.8832 z m 4.93071,5.0591 q -4.25759,3.8858 -4.66869,7.8653 -0.39399,3.9639 2.36821,6.9903 2.7622,3.0265 6.69718,2.9768 3.96769,-0.048 8.32787,-4.0277 4.3089,-3.9327 4.69692,-7.7657 0.40363,-3.816 -2.45221,-6.9451 -2.85583,-3.129 -6.75811,-3.0778 -3.88518,0.036 -8.21117,3.9839 z"
           id="path27981" />
        <path
           d="m 424.08926,1578.1826 20.96036,-26.6909 18.29767,14.3691 -3.54582,4.5153 -12.9085,-10.137 -4.96129,6.3177 11.14246,8.7501 -3.54582,4.5153 -11.14246,-8.7502 -8.90744,11.3427 z"
           id="path27983" />
        <path
           d="m 453.01069,1599.5594 16.7395,-29.5217 20.23828,11.4756 -2.83179,4.9941 -14.27755,-8.0957 -3.96221,6.9877 12.3242,6.9881 -2.83178,4.9942 -12.32421,-6.9881 -7.11372,12.5457 z"
           id="path27985" />
        <path
           d="m 484.65016,1616.0658 13.18982,-31.2694 6.31359,2.6632 -13.18982,31.2693 z"
           id="path27987" />
        <path
           d="m 527.80818,1617.6177 5.83275,3.8156 q -2.9656,4.9404 -7.12765,6.5905 -4.13354,1.634 -9.39562,0.1649 -6.5107,-1.8177 -9.46375,-7.4251 -2.94683,-5.6297 -0.79298,-13.3444 2.27835,-8.1607 7.74992,-11.4882 5.4778,-3.3497 12.34526,-1.4324 5.99788,1.6745 8.75399,6.2655 1.64454,2.7184 1.66379,6.9539 l -6.96875,-0.2631 q 0.12993,-2.7037 -1.30987,-4.692 -1.4175,-1.982 -4.04854,-2.7166 -3.6344,-1.0147 -6.63701,0.9591 -2.98032,1.9801 -4.61127,7.8219 -1.73055,6.1985 -0.23541,9.452 1.49515,3.2536 5.06266,4.2496 2.63104,0.7345 4.99315,-0.4086 2.36212,-1.1432 4.18933,-4.5026 z"
           id="path27989" />
        <path
           d="m 543.41218,1633.3528 4.93119,-33.5772 6.77957,0.9957 -4.9312,33.5771 z"
           id="path27991" />
        <path
           d="m 594.23252,1636.7029 -7.45276,-0.1452 -2.81236,-7.7651 -13.56309,-0.2644 -2.9508,7.6528 -7.2676,-0.1417 13.87728,-33.6733 7.24445,0.1412 z m -12.35248,-13.6701 -4.42992,-12.6821 -4.82817,12.5017 z"
           id="path27993" />
        <path
           d="m 605.04831,1635.5507 -4.63387,-33.3391 6.78704,-0.9433 3.84668,27.6755 16.87588,-2.3456 0.78719,5.6635 z"
           id="path27995" />
        <path
           d="m 653.24023,1614.5714 5.96522,-3.0474 q 1.79062,2.9023 4.06922,3.6964 2.30015,0.7856 5.20773,-0.3602 3.07989,-1.2137 4.12138,-3.117 1.05453,-1.9334 0.36707,-3.6779 -0.44133,-1.12 -1.41454,-1.6322 -0.96016,-0.5423 -2.82617,-0.4788 -1.27273,0.054 -5.64762,0.633 -5.62671,0.7493 -8.42423,-0.2882 -3.93453,-1.4603 -5.4113,-5.2079 -0.95057,-2.4122 -0.41695,-5.036 0.54667,-2.6539 2.67681,-4.7623 2.15168,-2.1169 5.79155,-3.5512 5.9444,-2.3425 9.96509,-0.9161 4.04223,1.4178 5.9074,5.709 l -6.26482,2.7922 q -1.36827,-2.2725 -3.14102,-2.7931 -1.75969,-0.5507 -4.45191,0.5102 -2.77836,1.0948 -3.90079,2.8559 -0.72371,1.1312 -0.23994,2.3588 0.44133,1.12 1.70302,1.5434 1.60501,0.537 6.68999,-0.1978 5.08499,-0.7348 7.77017,-0.4244 2.69823,0.2804 4.7537,1.8342 2.06851,1.5238 3.24823,4.5175 1.06939,2.7138 0.49534,5.677 -0.57405,2.9633 -2.87257,5.2127 -2.30701,2.2278 -6.4207,3.8489 -5.98748,2.3594 -10.28296,0.8672 -4.30396,-1.5138 -7.0164,-6.5659 z"
           id="path27997" />
        <path
           d="m 694.4183,1609.0059 -17.33013,-29.1789 21.63538,-12.8498 2.9317,4.9361 -15.74387,9.3507 3.84195,6.4688 14.64916,-8.7006 2.91988,4.9163 -14.64917,8.7005 4.71673,7.9416 16.30118,-9.6817 2.91988,4.9162 z"
           id="path27999" />
        <path
           d="m 750.51399,1568.6812 -5.70373,4.7992 -7.23046,-3.9908 -10.38007,8.7339 2.81981,7.702 -5.56202,4.68 -11.73535,-34.4783 5.54431,-4.665 z m -18.29833,-2.1509 -11.68606,-6.6255 4.60069,12.5872 z"
           id="path28001" />
        <path
           d="m 757.91553,1560.711 -25.47892,-21.9952 4.47771,-5.1869 21.15065,18.2587 11.13375,-12.8971 4.32826,3.7364 z"
           id="path28003" />
      </g>
      <g
         id="g29741"
         transform="matrix(1.0164725,0,0,1.0164725,-18.566547,-16.991481)">
        <g
           id="g28181"
           transform="matrix(1.3205341,0,0,1.3205341,-300.33206,-464.60907)">
          <path
             d="m 975.17553,1314.8227 h 210.66577 l -18.3693,12.6059 h -0.01 l -0.01,0.01 -85.8752,58.8637 -91.76163,-58.6504 z"
             style="fill:#ffffff;stroke:none;stroke-width:0.956295px"
             id="path28037" />
          <path
             d="m 989.83111,1327.6883 91.74359,58.639 0.01,0.01 0.01,-0.01 85.6574,-58.7145 v 137.4663 H 989.83111 Z"
             style="fill:#306686;fill-opacity:1;stroke:none;stroke-width:0.956295px"
             id="path28039" />
          <g
             transform="matrix(0.33957383,0,0,0.33959623,994.76455,1567.5809)"
             id="g28057">
            <path
               style="fill:#ffffff"
               d="m -13.622,-459.132 c 53.848,30.691 66.08,-10.255 94.466,-10.156 51.319,43.372 72.87,8.89 92.996,1.929 23.813,21.005 39.611,21.504 49.486,6.665 8.961,1.583 37.198,5.349 35.982,28.986 6.144,5.567 7.057,3.36 11.758,4.301 2.077,-6.313 7.386,-33.611 10.427,-40.637 -24.764,-34.999 -41.221,-23.681 -53.883,-30.075 -15.002,-29.438 -39.197,-17.16 -48.908,-24.848 -12.088,-29.728 -33.717,-28.215 -48.634,-26.587 -8.893,-41.475 -48.639,-17.15 -63.379,-25.039 -30.857,-42.516 -78.113,-33.526 -79.091,-33.723 z"
               id="path28041" />
            <path
               d="m 235.409,-486.087 c 3.958,0 8.571,0.167 12.258,1.643 2.312,0.924 5.572,1.527 7.33,3.285 1.345,1.345 2.467,2.673 3.665,4.171 2.43,3.036 1.896,3.154 1.896,6.319 0,0.971 -0.124,3.287 -1.896,2.401 -2.424,-1.212 -4.712,-3.838 -7.203,-4.55 -5.98,-1.708 -15.545,-0.51 -15.545,-9.352"
               style="fill:#d8d8d8"
               id="path28043" />
            <path
               d="m 192.95,-498.393 c 9.89,0 22.28,1.946 29.44,9.106 1.091,1.09 2.688,-1.582 2.884,-1.973 1.269,-2.539 -2.725,-6.819 -3.946,-8.65 -4.062,-6.093 -14.515,-9.853 -21.397,-11.23 -4.591,-0.918 -11.118,-0.8 -8.499,5.311 0.491,1.144 1.45,2.023 2.125,3.036"
               style="fill:#d8d8d8"
               id="path28045" />
            <path
               d="m 5.463,-496.07 c 10.981,3.66 17.877,8.074 19.319,19.612 0.938,7.503 2.213,14.103 4.537,21.075 0.15,0.449 1.463,6.294 0.147,6.294 -2.174,0 -5.331,1.391 -8.197,1.171 -8.356,-0.643 -16.414,-4.666 -24.734,-5.855 -3.465,-0.495 -7.233,-1.393 -8.276,-5.565 -1.059,-4.237 1.603,-8.147 2.196,-12.294 0.376,-2.635 -0.838,-6.054 0.878,-8.342 3.062,-4.083 5.242,-7.503 8.714,-10.974"
               style="fill:#d8d8d8"
               id="path28047" />
            <path
               d="m -5.276,-600.554 c 15.514,0 35.332,3.925 47.771,13.876 5.51,4.408 10.838,9.092 14.786,15.014 0.8,1.2 3.993,7.279 5.459,7.279"
               style="fill:none;stroke:#d8d8d8;stroke-width:7.82664px"
               id="path28049" />
            <path
               d="m 75.51,-562.991 c 10.827,-6.497 28.959,-5.429 38.814,1.962 5.322,3.993 6.351,11.585 10.902,16.137"
               style="fill:none;stroke:#d8d8d8;stroke-width:7.82664px"
               id="path28051" />
            <path
               d="m 144.446,-542.896 c 8.776,1.463 18.796,5.16 23.55,13.084 1.978,3.297 2.993,9.534 5.451,11.993"
               style="fill:none;stroke:#d8d8d8;stroke-width:6.84831px"
               id="path28053" />
            <path
               style="fill:none;stroke:#000000;stroke-width:1.97455px"
               d="m -13.622,-459.132 c 53.848,30.691 66.08,-10.255 94.466,-10.156 51.319,43.372 72.87,8.89 92.996,1.929 23.813,21.005 39.611,21.504 49.486,6.665 8.961,1.583 37.198,5.349 35.982,28.986 6.144,5.567 7.057,3.36 11.758,4.301 1.437,-6.728 9.096,-30.268 10.157,-41.574 -24.764,-34.999 -40.951,-22.744 -53.613,-29.138 -15.002,-29.438 -39.197,-17.16 -48.908,-24.848 -12.088,-29.728 -33.717,-28.215 -48.634,-26.587 -8.893,-41.475 -48.639,-17.15 -63.379,-25.039 -30.857,-42.516 -78.113,-33.526 -79.091,-33.723 z"
               transform="translate(1e-5,4e-5)"
               id="path28055" />
          </g>
          <path
             style="fill:#d8d8d8;fill-opacity:1;fill-rule:evenodd;stroke:none;stroke-width:3.02362;stroke-linecap:square;stroke-dasharray:none;stroke-opacity:1"
             d="m 1083.3774,1417.2741 c 1.6232,0.7226 0.1149,2.6859 0.615,3.9362 0.4476,1.119 2.3182,-0.1468 2.6446,-0.7995 0.5636,-1.1271 -0.2676,-3.4641 0.9226,-4.0592 -0.8451,-0.857 -1.3062,-0.246 -2.2756,-0.246 -0.1395,0 -1.0508,-0.4201 -1.1686,-0.1845 -0.2353,0.4705 -0.3785,0.9036 -0.738,1.353 z"
             id="path28059" />
          <path
             d="m 990.37118,1464.9957 0.81357,-1.0426 c 0,0 2.76459,-0.9013 3.18796,-1.05 2.90701,-0.9849 5.72359,-1.2026 8.16269,-2.079 3.2703,-1.0223 5.8102,-3.92 10.2741,-5.2349 3.5635,-0.9227 7.0292,-1.3439 10.2327,-2.4587 5.3455,-1.861 10.0728,-7.4753 15.4059,-10.8651 3.532,-2.0882 9.3349,-2.3537 12.4673,-3.4818 3.304,-1.0453 6.4344,-4.6148 9.493,-7.025 2.6917,-2.0826 8.006,-4.6069 11.0135,-5.6583 3.0351,-0.9118 5.5939,-4.4046 8.8361,-6.4988 l 2.3878,-1.2384 0.5963,1.3979 c 0.2859,0.6703 0.3021,0.075 1.4135,0.3041 0.5463,0.1127 0.8198,1.7681 1.3098,1.5414 0.5375,-0.2489 -0.4389,-1.0437 0.011,-1.9182 l 1.7337,-1.9328 2.2437,2.206 c 9.5012,11.6464 57.7153,35.4612 77.2407,44.8514"
             style="fill:#5eb13e;fill-opacity:1;stroke:none;stroke-width:0.664609px"
             id="path28061"
             sodipodi:nodetypes="ccccccccccccscccccc" />
          <path
             style="fill:#428a32;fill-opacity:1;fill-rule:evenodd;stroke:none;stroke-width:3.02362;stroke-linecap:square;stroke-dasharray:none;stroke-opacity:1"
             d="m 1084.1847,1422.2616 c 0.6958,0.4639 1.3142,1.0732 2.0874,1.3916 0.9555,0.3934 1.4989,-3.3719 2.7833,-2.0874 1.7864,1.7864 2.9029,4.8403 4.5229,6.7842 1.3557,1.627 4.4443,1.2023 6.0884,2.4354 1.8126,1.3595 2.8807,4.1367 5.3927,5.3927 2.2193,1.1096 4.206,2.8 6.4363,4.001 4.0668,2.1898 8.6162,3.3164 12.6988,5.9144 7.928,5.0451 16.3632,9.2235 25.2236,12.177 0.9233,0.3077 4.2447,1.809 3.1312,3.4791 -0.3174,0.4761 -13.4665,0.3479 -14.9602,0.3479 -5.1069,0 -9.5722,1.5535 -14.6123,1.9135 -10.6916,0.7637 -21.6239,0.174 -32.3558,0.174 -3.7422,0 -12.6704,1.3714 -15.1341,-1.9135 -0.9563,-1.2751 -0.8698,-2.9905 -0.8698,-4.5229 0,-3.3424 2.5421,-6.5942 2.9572,-9.9155 0.4909,-3.9267 -0.8554,-8.3272 0,-12.1769 0.7128,-3.2076 3.3057,-12.5684 6.6104,-13.3946 z"
             id="path28063" />
          <path
             style="fill:#428a32;fill-opacity:1;fill-rule:evenodd;stroke:none;stroke-width:3.02362;stroke-linecap:square;stroke-dasharray:none;stroke-opacity:1"
             d="m 1084.1847,1422.2616 c -0.8129,4.9999 -2.517,10.2206 -3.1312,15.1342 -0.4058,3.2462 1.3439,5.7068 1.7395,8.8717 0.2043,1.6342 -1.885,12.2939 -2.6093,13.7425 -0.8699,1.7399 -5.6344,1.0438 -7.3062,1.0438 -3.6045,0 -8.1206,1.3806 -11.655,2.0874 -2.3633,0.4727 -5.2721,-0.752 -7.3062,-1.5656 -3.5646,-1.4259 -7.6681,1.3917 -11.3071,1.3917 -6.0546,0 -12.9138,0.1307 -18.7872,-0.5219 -3.1227,-0.3469 -6.1669,-1.2177 -9.3936,-1.2177 -1.7748,0 -4.903,0.5091 -4.3489,-2.2614 0.5902,-2.951 8.0513,-2.9573 10.0894,-2.9573 4.5344,0 13.3225,-1.4723 15.3081,-6.4363 0.6354,-1.5884 1.3235,-3.0366 2.6094,-4.001 3.6966,-2.7725 11.669,-2.8613 16.1779,-5.5666 2.9324,-1.7595 5.013,-6.2466 7.1322,-7.3061 1.5228,-0.7615 3.1995,-0.5599 4.6968,-1.3917 3.7193,-2.0663 7.2841,-4.7728 10.9592,-6.6103 1.6859,-0.843 2.9369,-3.4306 4.5228,-3.827 1.279,-0.3198 1.8961,0.5 2.6094,1.3916 z"
             id="path28065"
             sodipodi:nodetypes="csscscsscssssssccscc" />
          <path
             style="fill:#427b35;fill-opacity:1;fill-rule:evenodd;stroke:none;stroke-width:3.1481;stroke-linecap:square;stroke-dasharray:none;stroke-opacity:1"
             d="m 996.77914,1462.2842 c 2.10615,1.1475 4.02616,-0.1164 6.27576,-0.1164 2.6765,0 4.3047,-1.0399 6.8883,-1.6 7.3517,-1.594 15.8626,1.9682 23.125,0 1.9878,-0.5388 4.0614,-2.6397 6.3963,-2.1335 3.9201,0.8499 5.5876,4.8258 10.8244,2.9335 2.2327,-0.8067 4.3199,-5.2839 7.1344,-4.267 1.7225,0.6225 4.5184,3.3461 6.6422,4.267 3.6827,1.5969 10.3825,-2.0091 14.0227,-2.6668 2.6115,-0.4719 5.9552,2.347 8.6103,2.6668 5.1512,0.6205 8.6357,-1.6047 13.0386,-2.4001 5.9844,-1.0813 7.6963,2.8426 13.0386,3.7336 4.8526,0.8092 13.5516,-1.4782 17.7128,-3.7336 4.4464,-2.4101 6.7923,0.3661 11.3164,1.0668 3.4804,0.5389 8.6301,-1.9117 11.8086,-0.5335 2.7575,1.1958 15.3509,3.6807 13.5306,9.6007 -1.5489,5.0371 -27.7786,3.1779 -31.2434,3.4669 -30.4857,2.5421 -63.0048,3.041 -93.7301,1.3334 -3.6526,-0.203 -48.96029,1.9466 -50.98204,-8.501 -0.47998,-2.4804 4.74946,-2.6608 5.59058,-3.1168 z"
             id="path28067"
             sodipodi:nodetypes="cscssssssssssssscssc" />
          <path
             d="m 990.37118,1464.9957 0.81357,-1.0426 c 0,0 2.76459,-0.9013 3.18796,-1.05 2.90701,-0.9849 5.72359,-1.2026 8.16269,-2.079 3.2703,-1.0223 5.8102,-3.92 10.2741,-5.2349 3.5635,-0.9227 7.0292,-1.3439 10.2327,-2.4587 5.3455,-1.861 10.0728,-7.4753 15.4059,-10.8651 3.532,-2.0882 9.3349,-2.3537 12.4673,-3.4818 3.304,-1.0453 6.4344,-4.6148 9.493,-7.025 2.6917,-2.0826 8.006,-4.6069 11.0135,-5.6583 3.0351,-0.9118 5.5939,-4.4046 8.8361,-6.4988 l 2.3878,-1.2384 0.5963,1.3979 c 0.2859,0.6703 0.3021,0.075 1.4135,0.3041 0.5463,0.1127 0.8198,1.7681 1.3098,1.5414 0.5375,-0.2489 -0.4389,-1.0437 0.011,-1.9182 l 1.7337,-1.9328 2.2437,2.206 c 9.582,11.7454 58.5381,35.8672 77.7325,45.0877"
             style="fill:none;stroke:#000000;stroke-width:0.664609px"
             id="path28069"
             sodipodi:nodetypes="ccccccccccccscccccc" />
          <path
             d="m 1167.2486,1504.4246 -86.4911,34.5119 -90.92639,-34.5119 v -39.3133 h 177.41749 z"
             style="fill:#7ca334;stroke:#000000;stroke-width:0.956295px"
             id="path28071" />
          <g
             transform="matrix(0.27568521,0,0,0.32575962,1001.081,1551.149)"
             id="g28087">
            <path
               style="fill:#d8d8d8;stroke:#000000;stroke-width:3.01372px"
               d="M 290.27294,-265.22599 289.924,-39.22"
               id="path28073"
               sodipodi:nodetypes="cc" />
            <path
               style="fill:#d8d8d8;stroke:#000000;stroke-width:3.01372px"
               d="M 352.81496,-264.32399 467.976,-94.742"
               id="path28075"
               sodipodi:nodetypes="cc" />
            <path
               style="fill:#d8d8d8;stroke:#000000;stroke-width:3.01372px"
               d="M 461.26602,-263.37601 602.434,-143.466"
               id="path28077"
               sodipodi:nodetypes="cc" />
            <path
               style="fill:#d8d8d8;stroke:#000000;stroke-width:3.01372px"
               d="M 194.32256,-264.34928 100.367,-99.596"
               id="path28079"
               sodipodi:nodetypes="cc" />
            <path
               style="fill:#d8d8d8;stroke:#000000;stroke-width:3.01372px"
               d="M -39.027,-144.335 98.820472,-264.23704"
               id="path28081"
               sodipodi:nodetypes="cc" />
            <path
               style="fill:#d8d8d8;stroke:#000000;stroke-width:3.01372px"
               d="m -39.055,-226.357 643.674,0.485"
               id="path28083" />
            <path
               style="fill:#d8d8d8;stroke:#000000;stroke-width:3.01372px"
               d="m -38.964,-160.419 641.78,4.166"
               id="path28085" />
          </g>
          <path
             style="fill:#fbd016;fill-opacity:1;stroke:#000000;stroke-width:0.614439px"
             d="m 1157.486,1358.4158 -17.4304,22.8987 -0.8259,-8.3353 -23.5772,27.3061 1.1009,-6.9945 c -0.4386,-2.3393 -21.9987,24.7982 -25.1369,29.7016 l 19.7726,-18.457 1.7129,7.1554 24.5206,-22.7841 0.451,5.4607 24.4307,-19.7714 z"
             id="path28089" />
          <g
             transform="matrix(0.31192038,0,0,0.32575962,855.38676,957.00743)"
             id="g28125">
            <path
               style="fill:#b75c34;stroke:#000000"
               d="m 700.069,1234.686 c -5.864,7.797 -16.211,18.032 -8.798,32.973 8.252,0.952 19.384,-14.394 19.391,-14.339 -0.005,-0.023 4.884,25.086 11.137,33.507 10.58,-9.816 14.219,-40.216 14.217,-40.098 -0.062,3.434 10.651,19.615 24.794,21.205 0.21,-28.041 -17.566,-35.742 -21.505,-38.227"
               id="path28091" />
            <path
               style="fill:#b75c34"
               d="m 685.443,1207.213 c 14.96,41.753 43.737,55.747 59.641,8.679 3.501,-2.197 7.232,-2.959 6.941,-7.643 13.646,-18.851 7.836,-4.397 14.852,1.312 l 57.507,-0.344 c 4.234,-0.218 14.899,-4.667 10.506,-14.958 23.143,-4.981 22.224,-7.154 23.735,-17.113 18.671,4.026 22.793,-8.353 21.895,-14.848 22.451,6.108 31.947,-12.608 36.166,-20.207 l -76.307,1.909 7.218,-20.05 c -15.358,19.06 -116.603,-12.53 -97.847,25.856 1.368,11.777 -11.991,23.056 -15.063,19.896 l -31.418,0.844 c -1.81,11.85 -29.351,12.443 -23.939,-16.688 l -0.339,-27.529 c -23.987,1.949 -56.176,9.899 -107.65,-6.95 3.228,13.186 19.274,23.326 19.891,23.585 -15.339,0.032 -46.603,7.077 -64.801,-7.004 -0.884,17.647 20.242,19.799 20.987,21.459 12.511,13.416 13.579,15.837 25.443,16.478 6.563,10.347 13.945,13.063 22.039,15.137 5.735,15.514 21.139,17.845 25.436,17.586 z"
               id="path28093" />
            <path
               d="m 620.348,1207.12 c -2.199,0.125 -7.228,-0.402 -12.41,-2.929 -5.16,-2.516 -10.453,-7.026 -13.414,-14.737 -8.022,-2.076 -15.295,-4.803 -21.945,-15.072 -5.977,-0.327 -9.096,-1.109 -12.487,-3.526 -3.363,-2.397 -6.791,-6.396 -13.04,-13.096 l -0.075,-0.081 -0.015,-0.055 c -0.188,-0.686 -5.556,-1.511 -10.893,-4.503 -2.663,-1.493 -5.336,-3.54 -7.248,-6.313 -1.907,-2.766 -3.098,-6.369 -2.889,-10.873 l 0.044,-0.964 0.761,0.594 c 17.99,14.034 46.945,7.407 62.826,6.928 -4.19,-2.846 -15.37,-9.657 -18.708,-22.995 l -0.219,-0.877 0.861,0.283 c 51.336,16.844 83.427,8.882 107.454,6.927 l 0.533,-0.044 0.347,28.114 -0.009,0.048 c -1.351,7.205 -0.654,12.471 1.162,16.256 1.8,3.754 4.621,5.907 7.756,6.888 3.129,0.978 6.381,0.718 9.055,-0.513 2.663,-1.226 4.59,-3.278 4.98,-6.11 l 0.057,-0.412 32.08,-0.862 0.134,0.157 c 0.279,0.331 0.632,0.41 1.204,0.385 0.597,-0.026 1.267,-0.225 2.063,-0.606 1.616,-0.775 3.454,-2.197 5.201,-4.114 3.51,-3.849 6.421,-9.355 5.75,-15.069 -2.336,-4.841 -2.837,-8.707 -1.796,-11.659 1.047,-2.972 3.7,-5.11 7.318,-6.504 7.174,-2.765 18.653,-3.014 31.109,-2.655 24.906,0.717 53.855,3.944 61.313,-5.495 l 1.898,-2.403 -8.009,22.249 76.451,-1.913 -0.425,0.765 c -2.106,3.793 -5.58,10.455 -11.359,15.381 -5.769,4.918 -13.654,7.978 -24.674,5.246 0.237,3.285 -0.469,7.547 -3.818,11.052 -3.328,3.483 -9.059,5.545 -18.231,3.729 -0.753,4.954 -0.857,7.68 -3.849,10.209 -2.924,2.472 -8.412,4.238 -19.619,6.672 1.118,2.653 1.076,4.46 0.61,6.401 -0.469,1.955 -1.609,3.609 -2.973,4.86 -2.725,2.498 -6.644,3.713 -8.823,3.833 l -57.691,0.345 -0.135,-0.113 c -3.599,-3.034 -3.983,-8.131 -5.057,-10.005 -0.244,-0.425 -0.369,-0.553 -0.663,-0.57 -0.335,-0.02 -0.719,0.151 -1.41,0.712 -1.446,1.177 -3.558,3.706 -6.901,8.318 0.107,2.491 -0.845,3.89 -2.244,4.992 -1.388,1.093 -3.117,1.797 -4.786,2.826 -3.987,11.723 -8.784,19.71 -14.006,24.414 -5.256,4.734 -11.068,6.155 -16.709,4.709 -11.199,-2.872 -22.178,-16.869 -29.694,-37.635 z m 65.1,-0.407 h 0.348 l 0.118,0.328 c 7.441,20.807 18.215,34.536 29.12,37.332 5.412,1.388 10.711,0.092 15.791,-4.483 5.114,-4.606 9.832,-12.443 13.785,-24.161 l 0.057,-0.169 0.151,-0.094 c 1.789,-1.119 3.569,-1.851 4.849,-2.859 1.269,-0.999 2.043,-2.137 1.859,-4.33 l -0.015,-0.174 0.109,-0.15 c 3.422,-4.726 5.659,-7.409 7.18,-8.646 0.794,-0.645 1.538,-0.968 2.101,-0.934 0.605,0.036 1.149,0.51 1.47,1.07 1.186,2.067 1.398,6.914 4.681,9.614 l 57.318,-0.343 c 2.057,-0.102 5.596,-1.216 8.164,-3.57 1.282,-1.175 2.25,-2.576 2.677,-4.357 0.431,-1.794 0.298,-3.842 -0.781,-6.335 l -0.241,-0.557 0.596,-0.128 c 11.547,-2.484 16.982,-4.233 19.762,-6.583 2.712,-2.292 2.826,-5.111 3.584,-10.116 l 0.08,-0.528 0.519,0.114 c 9.197,2.023 14.643,-0.011 17.819,-3.335 3.156,-3.302 3.926,-7.784 3.476,-10.956 l -0.107,-0.753 0.733,0.203 c 11.068,3.062 18.819,-0.049 24.465,-4.862 5.636,-4.804 8.578,-10.472 10.711,-14.341 l -76.166,1.905 6.732,-18.699 c -9.711,7.72 -35.66,5.028 -60.527,4.312 -12.43,-0.358 -23.705,-0.116 -30.72,2.588 -3.476,1.34 -5.775,3.18 -6.735,5.903 -0.966,2.741 -0.533,6.245 1.788,10.965 l 0.038,0.077 0.01,0.084 c 0.657,6.033 -2.398,12 -5.994,15.944 -1.805,1.98 -3.798,3.522 -5.508,4.341 -0.867,0.416 -1.734,0.672 -2.451,0.704 -0.741,0.033 -1.3,-0.172 -1.779,-0.53 l -30.831,0.828 c -0.634,2.899 -2.631,5.146 -5.471,6.453 -2.83,1.303 -6.464,1.593 -9.771,0.559 -3.299,-1.031 -6.462,-3.451 -8.36,-7.409 -1.883,-3.926 -2.596,-9.486 -1.253,-16.822 l -0.331,-26.944 c -23.888,2.013 -55.337,9.747 -106.441,-6.735 3.598,12.602 18.788,22.126 19.368,22.366 l 2.315,0.957 h -2.507 c -15.285,0.026 -45.831,6.825 -64.333,-6.531 -0.033,3.857 0.915,6.655 2.744,9.308 1.824,2.645 4.313,4.549 6.914,6.008 5.192,2.91 10.758,3.991 11.316,4.965 l -0.058,-0.101 c 6.242,6.694 9.597,10.605 12.856,12.929 3.237,2.307 6.328,3.042 12.216,3.356 l 0.258,0.014 0.137,0.217 c 6.438,10.246 13.671,12.854 21.741,14.921 l 0.255,0.065 0.09,0.246 c 2.794,7.652 7.957,11.969 13.007,14.431 5.029,2.453 9.823,2.959 11.93,2.829 z"
               id="path28095" />
            <path
               style="fill:#b75c34"
               d="m 734.053,1171.985 c -8.788,-20.628 16.046,-20.958 -4.001,-45.67 -18.897,-13.83 -43.341,2.048 -45.072,2.737 l -39.036,26.712 0.689,18.757 c 2.68,-14.847 20.202,-18.322 29.063,-21.542 17.012,-5.23 28.767,1.775 27.839,19.975"
               id="path28097" />
            <path
               d="m 880.122,1162.041 c -4.348,2.162 -82.797,-6.637 -84.137,2.144"
               style="fill:none;stroke:#000000"
               id="path28099" />
            <path
               d="m 794.53,1176.753 c 2.891,0 61.674,0.32 63.843,0.32"
               style="fill:none;stroke:#000000"
               id="path28101" />
            <path
               style="fill:none;stroke:#000000"
               d="m 784.321,1194.635 50.947,-0.266"
               id="path28103" />
            <path
               style="fill:none;stroke:#000000"
               d="m 789.075,1144.377 51.229,-0.358"
               id="path28105" />
            <g
               transform="matrix(-1,0,0,1,828.63062,553.57507)"
               id="g28115">
              <path
                 d="m 277.944,607.294 c -4.348,2.162 -82.797,-6.637 -84.137,2.144"
                 style="fill:none;stroke:#000000"
                 id="path28107" />
              <path
                 d="m 190.288,622.006 c 2.891,0 61.674,0.32 63.843,0.32"
                 style="fill:none;stroke:#000000"
                 id="path28109" />
              <path
                 style="fill:none;stroke:#000000"
                 d="m 181.298,639.888 50.947,-0.266"
                 id="path28111" />
              <path
                 style="fill:none;stroke:#000000"
                 d="m 186.897,589.63 51.229,-0.358"
                 id="path28113" />
            </g>
            <path
               style="fill:#ca6639;fill-opacity:1"
               d="m 674.825,1156.181 c -0.733,15.139 3.857,27.073 19.829,26.618 17.875,0.259 13.076,-19.993 11.074,-27.907 -12.93,-18.494 -51.7,0.107 -56.451,9.3 l 0.032,-6.758 33.39,-21.81 c 12.741,-16.001 65.828,-17.748 45.144,22.586 0.005,8.834 -3.073,10.454 5.339,17.738 17.223,-2.791 20.698,-10.33 21.654,-25.864 -0.491,-3.344 -4.765,-10.376 3.128,-16.084 6.189,-2.921 35.021,-1.525 33.674,-0.562 -7.262,4.839 -2.689,14.452 -2.133,15.652 -4.423,7.817 -3.162,13.383 1.512,18.771 -10.555,3.944 -8.267,14.441 -2.059,17.642 -11.138,2.03 -8.268,19.117 1.646,21.874 h -21.508 c -5.986,-15.689 -9.687,-18.494 -20.017,-0.889 3.756,2.712 -5.193,7.991 -7.291,8.502 -11.688,36.984 -36.415,37.423 -54.371,-11.625 l -39.726,0.142 c 2.944,-3.61 -3.646,-17.794 -7.95,-23.271 3.852,1.593 5.352,-10.117 -0.596,-10.954 3.966,-1.384 2.927,-11.551 -0.946,-12.812 2.011,2.602 5.996,-12.566 3.101,-17.427 l 0.504,-6.797 c -0.038,0.071 20.706,0.381 34.186,-3.497 l -0.197,5.415 -31.605,19.199 c -0.033,0.056 0.942,31.657 2.322,29.291 0.43,-17.689 24.814,-26.861 28.315,-26.475 z"
               id="path28117" />
            <path
               d="m 734.18,1170.095 c 0,0 -0.244,-0.652 -0.352,-0.965 -0.108,-0.312 -0.207,-0.615 -0.301,-0.917 -0.186,-0.603 -0.341,-1.177 -0.472,-1.74 -0.26,-1.124 -0.41,-2.153 -0.475,-3.137 -0.13,-1.959 0.086,-3.627 0.51,-5.183 0.846,-3.101 2.515,-5.589 3.842,-8.264 1.328,-2.676 2.308,-5.6 1.618,-9.357 -0.68,-3.707 -3.007,-8.334 -8.112,-14.535 l -0.041,-0.049 -0.05,-0.036 c -9.608,-6.963 -20.657,-6.497 -29.398,-4.156 -8.761,2.346 -15.33,6.508 -16.154,6.831 l -0.051,0.02 -0.046,0.032 -39.036,26.712 -0.228,0.156 0.01,0.275 0.689,18.757 0.176,4.781 0.816,-4.71 c 1.262,-7.283 6.188,-11.681 11.958,-14.78 5.77,-3.098 12.318,-4.759 16.772,-6.377 8.366,-2.58 15.093,-2.505 19.778,0.4 4.675,2.899 7.211,8.52 6.985,17.426 l 1,0.022 c 0.183,-9.121 -2.544,-15.251 -7.458,-18.298 -4.905,-3.042 -12.111,-3.1 -20.635,-0.494 -4.406,1.603 -11.039,3.285 -16.915,6.44 -5.876,3.156 -9.496,6.538 -11.597,12.29 l -0.559,-15.218 38.769,-26.53 c 1.099,-0.498 7.368,-4.462 15.985,-6.769 8.638,-2.313 19.221,-2.868 28.498,3.959 5.016,6.082 7.206,10.462 7.861,14.031 0.646,3.519 -0.233,6.117 -1.531,8.732 -1.298,2.617 -3.023,5.191 -3.911,8.446 -0.442,1.622 -0.679,3.456 -0.543,5.512 0.068,1.024 0.23,2.132 0.499,3.296 0.135,0.581 0.299,1.19 0.491,1.81 0.096,0.31 0.2,0.629 0.311,0.95 0.111,0.32 0.353,0.965 0.353,0.965 10e-4,0 0.943,-0.332 0.944,-0.328 z"
               id="path28119" />
            <path
               style="fill:#b75c34"
               d="m 750.434,1186.015 c -4.862,6.576 -11.996,22.163 -23.965,26.73 7.567,6.664 2.42,18.664 -2.15,19.048 4.9,4.964 11.976,-8.439 9.445,-14.111 20.58,-21.075 19.975,-28.126 16.67,-31.667 z"
               id="path28121" />
            <path
               d="m 708.234,1133.323 c 0,1.628 -1.319,2.947 -2.947,2.947 -1.628,0 -2.947,-1.319 -2.947,-2.947 0,-1.628 1.319,-2.947 2.947,-2.947 1.628,0 2.947,1.319 2.947,2.947 z"
               id="path28123" />
          </g>
          <path
             d="m 975.35189,1314.9149 h 210.66571 l -18.5926,12.759 v 176.8429 l -86.4912,34.5119 -90.92633,-34.5119 v -176.7722 z"
             style="fill:none;stroke:#000000;stroke-width:2.00348;stroke-dasharray:none"
             id="path28127" />
          <path
             style="fill:#4c9a39;fill-opacity:1;fill-rule:evenodd;stroke:none;stroke-width:3.02362;stroke-linecap:square;stroke-dasharray:none;stroke-opacity:1"
             d="m 1046.6888,1443.4436 c 5.1001,0.7833 9.1427,-3.0518 12.5795,-6.4886 1.2455,-1.2455 1.5522,-2.8484 3.0752,-3.9362 1.8327,-1.3091 3.5643,-1.4263 5.6582,-1.8451 2.7883,-0.5576 5.642,-2.4916 8.1184,-3.9361 1.2923,-0.7539 2.2069,-1.9537 2.8291,-3.1982 0.1434,-0.2868 0.9722,-2.349 0.984,-2.3371 0.4244,0.4244 0.4577,1.7763 0.7381,2.3371 0.6342,1.2684 3.1154,3.3234 2.5831,4.9202 -0.6231,1.8694 -4.1338,1.7036 -4.4282,4.0592 -0.2638,2.1103 3.2934,6.4148 0.738,8.1184 -1.1684,0.7789 -2.7022,-1.0224 -3.5671,-1.5991 -0.5928,-0.3952 -3.6379,3.5672 -5.9043,3.5672 -3.1804,0 -0.7999,-8.5587 -5.2892,-3.3212 -6.3905,7.4556 -3.8763,0.9229 -7.8724,1.7221 -2.738,0.5476 -10.2424,7.5022 -10.2424,1.9374 z"
             id="path28129"
             sodipodi:nodetypes="cssssscssssssssc" />
          <path
             style="fill:#3c7e2d;fill-opacity:1;fill-rule:evenodd;stroke:none;stroke-width:3.02362;stroke-linecap:square;stroke-dasharray:none;stroke-opacity:1"
             d="m 1085.7503,1426.0886 c 4.0823,0.9109 3.1536,4.4243 5.2187,6.7843 2.4958,2.8524 7.2928,3.5126 10.2633,5.7405 1.4842,1.1131 1.4553,3.3476 2.9573,4.349 1.5486,1.0323 5.2171,1.4347 7.1322,1.9135 0.9666,0.2416 10.9099,3.187 9.0457,3.653 -3.3979,0.8495 -12.4845,1.6654 -15.4821,0 -1.6158,-0.8976 -3.6774,-3.7191 -5.0447,-4.1749 -3.0776,-1.0259 -8.6047,0.8819 -10.4374,-2.7833 -0.8019,-1.604 0.061,-3.4091 -0.3479,-5.0447 -0.481,-1.924 -1.9829,-3.3567 -2.4353,-5.3927 -0.3502,-1.5757 -0.042,-3.665 -0.8698,-5.0447 z"
             id="path28131" />
        </g>
        <path
           style="fill:none;fill-opacity:1;fill-rule:evenodd;stroke:#000000;stroke-width:2.26772;stroke-linecap:square;stroke-dasharray:none;stroke-opacity:1"
           d="m 1006.9925,1288.7141 121.0373,77.4934 112.5412,-77.1961"
           id="path28237" />
      </g>
    </g>
  </g>
</svg>
